<?xml version="1.0" encoding="UTF-8"?>
<svg id="_Слой_2" data-name="Слой 2" xmlns="http://www.w3.org/2000/svg" viewBox="0 0 30.48 30.47">
  <defs>
    <style>
      .cls-1 {
        fill: #fff;
      }
    </style>
  </defs>
  <g id="_Слой_1-2">
    <rect x="6.04" y="0" width="18.35" height="30.47"/>
    <path class="cls-1" d="M18.28,12.19v3.04c0,1.68-1.37,3.05-3.05,3.05h0c-1.68,0-3.05-1.37-3.05-3.05v-3.04h6.1Z"/>
    <path class="cls-1" d="M12.18,12.19h0s-6.09,0-6.09,0v18.28h0c-3.36,0-6.09-2.73-6.09-6.09V6.09C0,2.73,2.73,0,6.09,0h0v6.1s0,0,0,0c3.36,0,6.09,2.73,6.09,6.09Z"/>
    <path class="cls-1" d="M30.48,6.1v18.28c-.01,3.32-2.66,6.01-5.96,6.08-.05.01-.09.01-.14.01V12.2s0,0,0,0h-6.08s0,0,0,0c0-1.68.68-3.2,1.79-4.3,1.1-1.1,2.62-1.78,4.3-1.78,0,0,0,0,0,0V0s0,0,0,0h0c3.37,0,6.1,2.73,6.1,6.1Z"/>
  </g>
</svg>